<svg width="144" height="144" viewBox="0 0 144 144" fill="none" xmlns="http://www.w3.org/2000/svg">
<g clip-path="url(#clip0_921_39)">
<circle cx="72" cy="72" r="111" fill="#1F2E44"/>
<path d="M69.2225 92.8801V106.048L24.6899 80.3394V67.1296L53.7476 83.9159L53.7707 83.9389L54.1322 84.1466H54.1744L69.2225 92.8801ZM24.6899 86.354L69.2225 112.062V125.207L24.6899 99.4792V86.354Z" fill="#EF576E"/>
<path d="M51.0821 63.2847L52.6434 64.1807V77.3059L24.6895 61.1234V48.0405L37.357 55.3819C37.4416 55.4242 37.5377 55.4665 37.6262 55.5049L51.0821 63.2847Z" fill="#EF576E"/>
<path d="M37.6267 55.5017C37.5421 55.4518 37.4498 55.4094 37.3575 55.3787L24.6899 48.0374L37.3575 55.4018C37.4344 55.4248 37.5036 55.4594 37.5652 55.5056L51.0634 63.2776L37.6267 55.5017ZM53.7668 83.9364C53.8207 83.9903 53.8784 84.0326 53.9476 84.0595C54.0053 84.0941 54.0668 84.121 54.1283 84.1441L53.7668 83.9364ZM57.824 64.1583L57.8471 64.1814V64.1391L57.824 64.1583ZM37.6267 55.5017C37.5421 55.4518 37.4498 55.4094 37.3575 55.3787L24.6899 48.0374L37.3575 55.4018C37.4344 55.4248 37.5036 55.4594 37.5652 55.5056L51.0634 63.2776L37.6267 55.5017Z" fill="#EF576E"/>
<path d="M85.8079 105.491V118.635L74.421 125.208V112.063L85.8079 105.491ZM90.9995 102.472L102.386 95.9192V109.064L90.9995 115.617V102.514M119 48.0371V61.1392L107.559 67.7345V54.6516L119 48.0371ZM119 67.1538V80.3444L107.582 86.9166V86.8973L107.563 73.7722V73.7491L119 67.1538ZM119 86.3551V99.4803L107.582 106.076V92.9312L119 86.3551ZM116.379 43.5223L104.981 50.1368L60.4444 24.4095L71.8313 17.8142L116.379 43.5223ZM99.7761 53.1345L88.4199 59.6644L73.2757 50.9271L73.0681 50.8041C73.0427 50.7884 73.0133 50.7804 72.9835 50.781L43.8643 33.9755L55.2474 27.3841L99.7761 53.1345Z" fill="#EF576E"/>
<path d="M66.6232 53.0734L55.2362 59.6687H55.2131L39.9921 50.866C39.919 50.8468 39.8498 50.8198 39.7844 50.7814L27.2822 43.5208L38.6692 36.9255L66.6232 53.0734Z" fill="#EF576E"/>
<path d="M39.7248 50.7417L27.2842 43.5234L39.7864 50.784C39.871 50.8071 39.9094 50.8455 39.994 50.8686C39.9123 50.8111 39.8212 50.7681 39.7248 50.7417ZM39.7248 50.7417L27.2842 43.5234L39.7864 50.784C39.871 50.8071 39.9094 50.8455 39.994 50.8686C39.9123 50.8111 39.8212 50.7681 39.7248 50.7417ZM73.1589 50.8225C73.1335 50.8068 73.1041 50.7988 73.0743 50.7994L73.2819 50.9225C73.255 50.8609 73.2127 50.8417 73.1512 50.8186H73.1589V50.8225ZM39.7248 50.7417L27.2842 43.5234L39.7864 50.784C39.871 50.8071 39.9094 50.8455 39.994 50.8686C39.9123 50.8111 39.8212 50.7681 39.7248 50.7417Z" fill="#EF576E"/>
<path d="M57.8237 64.1597L57.8494 64.134V64.2025L57.8237 64.1597Z" fill="#1E6799"/>
<path d="M83.2226 62.6607L71.8241 69.2329L60.4256 62.6607L71.8241 56.0654L83.2226 62.6607ZM57.8452 67.1947L69.2322 73.7477V86.8729L57.8452 80.3007V67.1947ZM85.8107 67.1947V80.3391L74.4238 86.8921V73.7477L85.8107 67.1947Z" fill="white"/>
<path d="M85.8108 86.3544L85.8338 86.3121V99.4796H85.8108L74.4238 106.052V92.9074L85.8108 86.3544ZM102.389 76.7634V89.9078L91.0524 96.4607L91.0101 96.5031V83.3587L91.0524 83.3163L102.366 76.7634H102.389ZM102.362 57.6274V70.7526L91.0063 77.3056V64.1612L102.362 57.6274Z" fill="#EF576E"/>
</g>
<defs>
<clipPath id="clip0_921_39">
<rect width="144" height="144" fill="white"/>
</clipPath>
</defs>
</svg>
