<svg width="156" height="156" viewBox="0 0 156 156" fill="none" xmlns="http://www.w3.org/2000/svg">
<path d="M106 0H50C22.3858 0 0 22.3858 0 50V106C0 133.614 22.3858 156 50 156H106C133.614 156 156 133.614 156 106V50C156 22.3858 133.614 0 106 0Z" fill="#0E1722"/>
<path d="M140 78H16V107H140V78Z" fill="#1F2A35"/>
<mask id="mask0_961_2460" style="mask-type:alpha" maskUnits="userSpaceOnUse" x="22" y="27" width="113" height="52">
<rect x="22" y="27" width="113" height="51.5189" fill="#0E1722"/>
</mask>
<g mask="url(#mask0_961_2460)">
<g style="mix-blend-mode:luminosity">
<path d="M93.0792 68.8835C93.0792 76.9473 86.5369 83.4839 78.4663 83.4839C70.3957 83.4839 63.8535 76.9473 63.8535 68.8835C63.8535 60.8198 70.3957 54.2832 78.4663 54.2832C86.5369 54.2832 93.0792 60.8198 93.0792 68.8835Z" fill="white"/>
<path d="M68.6241 77.784C66.6493 75.8897 65.4436 73.2162 65.332 70.4824C65.6917 71.4114 66.8028 71.8873 67.7924 71.7694C68.7826 71.6515 69.6549 71.0613 70.3864 70.3844C72.1785 68.7259 73.3671 66.4296 73.6841 64.0097C73.8597 62.6723 73.7431 61.2091 72.9107 60.1465C72.0783 59.084 70.3643 58.655 69.0904 59.4739C72.3676 56.272 77.4525 55.056 81.8251 56.429C86.1985 57.8012 89.6732 61.7041 90.5291 66.203C90.0436 65.1056 88.656 64.6035 87.4844 64.8691C86.3129 65.1348 85.3625 66.0141 84.7063 67.0191C83.635 68.6591 83.2327 70.8184 84.0153 72.6139C84.7973 74.4088 87.9451 76.0687 89.8225 75.509C88.8778 79.0582 84.1845 81.7246 80.5171 81.9689C76.8497 82.2133 72.3143 81.3226 68.6241 77.784Z" fill="#293885"/>
<path d="M75.8452 97.5437C72.1224 97.2483 68.858 95.9399 65.7721 94.0691C67.5301 94.9072 69.3855 95.5386 71.3169 95.908C66.569 94.3106 63.0459 91.8218 59.6656 88.4849C55.662 84.8228 53.3623 80.3822 51.8175 75.2476C50.9218 72.1487 50.164 69.0242 49.9621 65.8528C49.9493 65.7264 49.95 65.6177 49.9387 65.5098C49.9381 65.5283 49.9365 65.5467 49.936 65.5659C49.7618 68.1498 50.0434 70.7395 50.4848 73.2837C50.8729 75.6113 51.5078 77.9061 52.4063 80.0895C52.3402 79.9453 52.2705 79.804 52.2066 79.6584C50.3846 75.7753 48.8135 71.6494 48.1695 67.1668C48.2576 70.6166 48.982 74.043 50.1386 77.2889C50.9 79.3913 51.731 81.4852 52.8506 83.4243C50.6042 80.1194 48.8818 76.4607 47.8809 72.4484C48.7048 79.9986 52.9452 86.8449 58.6293 91.7586C61.7622 94.6892 65.7253 96.4776 69.8328 97.5856C70.8302 97.8726 72.0287 98.1958 72.9315 98.4032C71.3896 97.8321 69.5534 97.1019 68.2269 96.5444C65.3038 95.354 62.5534 93.6699 60.1279 91.5682C64.6142 95.0486 70.0217 97.8598 75.8452 97.5437Z" fill="#364FA9"/>
<path d="M99.6177 46.34C100.677 47.4417 101.778 48.8878 102.792 50.4092C101.317 48.4687 99.6071 46.7151 97.6884 45.2263C96.8993 44.624 95.7968 43.8299 95.1257 43.4102C96.2439 44.3598 97.3301 45.3478 98.3808 46.372C100.061 48.1839 101.573 50.1897 102.887 52.3326C101.011 49.7351 98.6389 47.5049 95.8281 45.8634C98.169 47.7066 100.157 49.9162 101.79 52.3617C100.019 50.1165 97.7396 48.2919 95.4065 46.654C94.5712 46.0609 93.6229 45.4259 92.8125 44.9081C93.9158 45.8265 94.9999 46.7669 96.0761 47.7165C97.7261 49.169 99.6654 51.172 100.733 52.6139C102.314 54.8548 103.55 57.2903 104.361 59.5035C105.867 63.6671 106.681 67.7817 106.539 72.162C106.939 69.6064 106.968 66.9741 106.633 64.3895C107.074 66.7618 107.26 69.1746 107.182 71.5618C107.141 72.6762 106.912 74.1394 106.775 75.018C107.036 74.1614 107.255 73.292 107.431 72.4141C107.962 69.5695 107.983 66.6332 107.54 63.7658C108.241 66.9159 108.517 70.154 108.273 73.3751C109.101 69.4523 108.971 65.3817 108.039 61.488C108.569 63.1465 108.989 64.817 109.18 66.364C109.316 67.3506 109.427 68.558 109.512 69.4338C109.549 68.8116 109.572 68.1894 109.582 67.5672C109.732 59.4779 105.914 51.4156 99.6177 46.34Z" fill="#364FA9"/>
<path d="M63.2541 45.0306C61.135 46.1869 59.1409 47.7076 57.3915 49.489C59.2611 47.3092 61.3994 45.3431 63.7375 43.7685C56.8619 46.9249 51.8544 53.6178 50.5166 61.0323C50.4199 61.5416 50.3047 62.254 50.2656 62.6525C50.609 61.4386 51.0071 60.2397 51.4898 59.0741C51.5943 58.817 51.708 58.5606 51.8203 58.3035C51.0476 60.533 50.6609 62.8769 50.7711 65.2485C51.418 57.7566 57.3481 49.7752 63.1823 45.5378C64.0489 44.9362 65.172 44.2159 65.932 43.7266C65.0249 44.13 64.1349 44.5718 63.2541 45.0306Z" fill="#364FA9"/>
<path d="M62.7398 42.4365C60.347 43.9593 58.0729 45.7606 56.0924 47.8268C57.1239 46.5383 58.2329 45.2854 59.4257 44.0687C52.8465 48.9106 48.7334 55.6121 47.9884 63.7987C47.9358 64.3328 47.8675 65.1254 47.8633 65.5125C48.0168 64.7518 48.1818 63.9926 48.3716 63.2397C48.9118 61.0428 49.6334 58.9454 50.5191 56.9346C49.5943 59.7018 49.1315 62.6317 49.2687 65.5246C49.632 61.3276 51.0821 57.3742 52.9944 53.8463C55.3531 49.7537 58.572 46.4346 62.3268 43.1951C63.0604 42.6049 64.5874 41.5948 65.417 41.0898C64.5028 41.4933 63.6078 41.9407 62.7398 42.4365Z" fill="#364FA9"/>
<path d="M85.7764 41.5321C87.9296 41.9512 90.0473 42.5911 92.1373 43.6167C85.3925 39.0966 75.431 38.3714 68.1153 41.9107C67.3831 42.2495 66.5428 42.6984 65.918 43.0691C66.8464 42.6905 67.7869 42.3411 68.7451 42.0456C70.142 41.5953 71.4984 41.2835 72.8576 41.0796C70.9183 41.5832 69.0487 42.3553 67.322 43.4328C74.0753 40.6989 81.209 40.8744 88.0661 42.8418C89.008 43.1075 90.2286 43.5741 90.9644 43.8852C90.3303 43.4875 89.672 43.1288 88.9945 42.8099C87.9588 42.3049 86.8789 41.8844 85.7764 41.5321Z" fill="#364FA9"/>
<path d="M85.7174 39.5438C88.5936 40.3109 91.2829 41.3891 93.8726 42.6214C90.5691 40.4523 86.9302 38.6148 83.0203 37.8775C78.0079 36.9996 72.6905 37.6488 68.0208 39.6646C67.2978 39.9856 66.5365 40.3678 65.8789 40.7435C67.2104 40.2143 68.5753 39.7598 69.9729 39.4394C70.7762 39.259 71.5965 39.117 72.4226 38.9934C70.2266 39.5964 68.0606 40.5709 65.9528 41.9659C68.1829 40.7939 70.747 40.1944 73.2408 39.6838C78.7231 38.7192 84.6454 39.7363 90.2002 41.8309C91.0213 42.1328 92.0776 42.5994 92.7146 42.858C92.1466 42.5114 91.5708 42.1761 90.9864 41.8572C89.2547 40.9097 87.4939 40.1326 85.7174 39.5438Z" fill="#364FA9"/>
<path d="M66.7993 55.5182C66.9358 55.3669 67.0957 55.21 67.2216 55.0771C67.1953 55.0963 67.1689 55.1148 67.1427 55.134C65.6932 56.183 64.3496 57.4026 63.3288 58.8814C62.158 60.4759 61.3135 62.2168 60.7831 64.0166C61.0895 62.28 61.6078 60.5967 62.3357 59.0035C62.7722 57.9836 63.4056 56.823 63.9103 55.9657C63.4205 56.5183 62.9584 57.0965 62.5248 57.6945C60.8436 59.9198 59.7907 62.5535 59.3607 65.2838C59.3962 64.7986 59.4431 64.3256 59.5107 63.8788C59.7872 62.2019 60.2237 60.5157 60.712 58.9098C60.4604 59.3821 60.2244 59.8623 60.0012 60.3481C58.5645 63.3227 57.8344 66.6525 58.2432 69.9517C58.2908 70.3146 58.3562 70.6783 58.4237 71.0419C57.8621 68.6256 57.6389 66.1112 57.796 63.5393C57.8692 62.3283 58.0782 60.9959 58.2716 59.9496C58.0008 60.6329 57.7626 61.3304 57.5636 62.0385C57.0688 63.7553 56.8193 65.4713 56.7788 67.161C56.7375 66.8073 56.7006 66.455 56.6714 66.1055C56.5811 65.0124 56.7112 63.4328 56.8065 62.6067C56.5712 63.2865 56.3977 63.9861 56.2691 64.6935C55.8916 67.1092 56.0046 69.6143 56.493 72.0292C56.1212 70.6591 55.8439 69.2627 55.6079 67.8642C55.5148 67.3712 55.3883 65.6922 55.4281 64.7454C55.3357 65.2113 55.2568 65.6794 55.1942 66.1503C54.9063 69.0794 55.2475 72.0711 56.1496 74.8788C55.4558 72.9171 54.902 70.7841 54.4506 68.6803C54.4598 71.5839 54.8039 74.111 55.5582 76.3796C55.2369 75.6019 54.9781 74.849 54.8338 74.182C54.6262 73.4313 54.4193 72.4838 54.2715 71.8239C54.2786 72.5264 54.322 73.2267 54.3824 73.9256C54.9255 80.9587 60.063 86.6232 65.9711 89.997C63.5513 87.8718 61.3611 85.4945 59.3784 82.9596C59.1375 82.6954 58.8062 82.25 58.433 81.696C59.6777 83.2735 61.2431 84.7445 63.1774 86.1721C63.5598 86.4598 64.0795 86.8512 64.3972 87.0578C63.8072 86.4442 63.22 85.8269 62.6499 85.1948C61.0149 83.3715 59.6415 81.7209 58.4259 79.7207C59.9798 82.0256 62.0563 83.927 64.1996 85.6806C62.5639 83.7615 60.8165 81.5035 59.505 79.2868C60.7049 81.0383 62.1708 82.6137 63.8015 83.966C62.4118 82.3281 61.2324 80.5177 60.2514 78.6156C61.6547 80.6143 63.4504 82.3949 65.6128 83.8524C63.7162 81.9446 62.1445 79.8294 60.9104 77.5636C61.4784 78.4572 62.1274 79.296 62.8831 80.0389C61.8559 78.4863 61.0668 76.6843 60.4895 74.8028C61.1165 76.2837 61.9504 77.6816 63.0217 78.9231C62.1502 77.3399 61.5338 75.7517 61.1172 74.1288C62.0961 76.7369 63.7909 79.1142 66.1929 80.963C64.6709 79.2463 63.5463 77.3825 62.7885 75.4314C63.7233 77.3349 65.0299 79.0552 66.7168 80.3351C64.5145 77.8201 63.397 74.9477 62.7658 71.6592C62.3144 68.9992 62.8234 63.8703 64.0255 61.4227C64.575 60.1357 65.4109 58.6633 66.0948 57.6206C65.4628 58.2641 64.8863 58.9609 64.3532 59.6875C63.5314 60.7813 62.8689 61.9902 62.3712 63.2659C62.4892 62.8433 62.6193 62.4214 62.7629 62.0016C63.547 59.7983 64.9659 57.4083 66.7993 55.5182Z" fill="#297AC8"/>
<path d="M88.0045 55.2664C86.3367 53.8679 84.3811 52.8089 82.279 52.2968C84.2389 52.578 86.159 53.142 87.7692 54.0831C88.7964 54.6236 89.948 55.5093 90.7492 56.1152C90.3219 55.6251 89.8783 55.1492 89.4084 54.6996C87.2794 52.5752 84.5588 51.3827 81.6862 50.9792C83.457 51.0659 85.1339 51.3095 86.9111 51.8635C87.9654 52.1789 89.2428 52.6441 90.1314 53.0106C89.3857 52.5134 88.6016 52.0766 87.8019 51.6717C85.9088 50.6908 83.8302 50.0637 81.7039 49.786C83.3837 49.8286 85.0067 50.0069 86.4924 50.3357C87.349 50.5069 88.4217 50.9295 89.0857 51.2015C88.4992 50.8066 87.8822 50.455 87.2417 50.1539C83.8117 48.6794 79.8706 48.2248 76.1015 48.7781C78.928 48.1594 81.4793 47.8377 84.4948 48.087C80.4478 46.9136 76.0574 47.2581 72.063 48.4819C71.505 48.685 70.9626 48.9287 70.4287 49.1901C73.0945 47.8306 75.4297 46.9626 78.7502 46.2772C72.3573 46.1899 65.7888 49.2263 62.2671 54.6549C61.9863 55.1002 61.65 55.6841 61.4453 56.0776C62.0112 55.4007 62.5742 54.7195 63.2076 54.1044C65.117 52.2243 67.1004 50.9466 69.5628 49.6389C69.5742 49.6332 69.5849 49.6283 69.5963 49.6219C67.5468 50.764 65.712 52.3074 64.2121 54.0973C63.9519 54.4219 63.5595 54.9248 63.4031 55.1613C63.9277 54.6691 64.7474 53.9332 65.1796 53.6044C67.2148 52.0681 69.184 50.9167 71.3337 50.0857C68.6082 51.2129 66.1649 52.9495 64.345 55.3282C66.3213 53.5128 68.8754 52.1618 71.6536 51.2434C69.7477 52.0809 67.9677 53.2081 66.5103 54.6655C69.1825 52.9239 72.2464 51.8443 75.2819 51.3194C73.0007 51.8692 70.8268 52.86 68.9849 54.2245C70.5311 53.4197 72.2486 52.9438 73.9945 52.615C71.8043 53.2542 69.7591 54.3495 68.1454 55.9462C71.5391 53.7514 75.2606 53.1846 79.1782 53.1917C81.571 53.1186 84.0527 53.6406 85.8072 54.5235C87.0334 55.0193 88.4282 55.8851 89.3402 56.5868C88.9229 56.1195 88.48 55.6748 88.0045 55.2664Z" fill="#297AC8"/>
<path d="M66.703 48.5506C66.3924 48.7374 66.091 48.9363 65.7945 49.1423C67.2099 48.0698 69.1165 46.6478 70.6619 45.7472C65.4967 47.5634 60.753 51.0515 58.4462 56.125C58.3851 56.2457 58.3218 56.3707 58.2656 56.4865C58.2727 56.4765 58.2806 56.4666 58.2884 56.4574C58.6879 55.9424 59.0938 55.4324 59.5033 54.9253C60.9933 53.0118 63.2674 51.0359 64.6948 49.9754C62.9304 51.4244 61.4554 53.2121 60.3144 55.1973C60.0819 55.5788 59.8083 56.0561 59.6305 56.3998C60.0229 55.9247 60.4224 55.4566 60.8326 54.997C64.5683 50.4847 69.7961 47.8673 75.2571 45.5703C72.2842 46.0917 69.3695 47.14 66.703 48.5506Z" fill="#297AC8"/>
<path d="M59.8145 53.4002C61.6251 51.2247 63.7414 49.3055 65.8882 47.4688C63.3113 48.7082 61.0336 50.8731 59.8145 53.4002Z" fill="#297AC8"/>
<path d="M100.273 63.1752C100.629 64.0232 100.983 65.0219 101.266 65.8188C101.224 65.4935 101.169 65.171 101.113 64.8478C100.034 57.4788 94.9935 51.6588 88.0938 49.0166C90.9302 50.8555 93.5419 53.1433 95.7193 55.7436C94.9935 54.9822 94.2045 54.2705 93.3372 53.6327C92.8623 53.2548 92.2183 52.7526 91.8152 52.4756C92.6946 53.4189 93.5647 54.3728 94.3978 55.3572C95.2772 56.4091 96.0726 57.5718 96.7743 58.8141C95.2445 56.6265 93.1915 54.7918 90.8669 53.5119C93.9038 56.0043 96.121 59.2403 97.2577 62.6915C96.9321 61.8569 96.5589 61.0443 96.1409 60.2623C95.811 59.6437 95.3945 59.0243 94.9587 58.5044C95.472 59.4057 95.7997 60.3121 96.1224 61.3093C96.4594 62.4287 96.7267 63.5544 96.9264 64.6795C96.5717 63.4436 96.052 62.2561 95.4556 61.1189C94.9196 60.1522 94.3765 59.133 93.5227 58.4085C94.3075 59.4342 94.6054 60.4925 95.0362 61.6779C95.2821 62.4045 95.4805 63.0764 95.6454 63.7292C94.7085 61.0159 93.0948 58.5577 90.7062 56.9155C92.1258 58.3986 93.1346 60.0649 93.8348 61.8434C92.89 60.0954 91.6432 58.5065 90.1468 57.2273C91.2422 58.4703 92.4315 60.7474 92.819 61.7688C93.9777 64.4352 94.4419 67.0255 94.2102 70.0371C94.0758 73.6126 92.964 77.4189 90.542 80.2664C90.2228 80.6883 89.6271 81.248 89.3776 81.5037C90.7539 80.6372 91.9005 79.4454 92.878 78.1555C93.4609 77.3145 93.9521 76.4132 94.3523 75.4721C93.8035 77.365 92.9739 79.2209 91.7434 80.7622C91.6005 80.9866 90.9671 81.5961 91.0858 81.53C92.2936 80.6351 93.3514 79.5178 94.1035 78.2123C94.7902 77.0184 95.3632 75.7505 95.7954 74.4408C95.5715 75.3769 95.2793 76.2854 94.8933 77.1512C94.4632 78.1917 93.6884 79.6386 93.2917 80.3907C93.768 79.8325 94.2137 79.25 94.6317 78.647C95.4073 77.6171 96.0215 76.4949 96.4892 75.3187C95.6923 78.044 94.5784 80.4362 92.9014 82.9023C95.0383 80.7927 96.7366 78.1633 97.7468 75.3173C97.7318 75.4146 97.7205 75.5147 97.7041 75.612C97.488 77.0042 97.016 78.6655 96.5866 79.8268C97.0807 78.9759 97.5292 78.0972 97.8733 77.1739C99.2048 73.5593 99.8929 69.557 99.4273 65.703C99.9512 68.0469 100.144 70.4902 99.9306 72.9229C101.214 68.6244 100.746 64.1603 98.8863 60.3142C99.4074 61.2446 99.8744 62.1985 100.273 63.1752Z" fill="#297AC8"/>
<path d="M100.436 57.7162C100.773 58.192 101.145 58.7596 101.448 59.1957C101.358 58.9755 101.266 58.7567 101.172 58.5387C99.3326 53.8658 95.7591 49.9408 91.1071 47.9648C93.0392 49.3904 94.8299 51.0183 96.4351 52.7315C94.8079 51.0353 92.7776 49.6105 90.1801 48.3505C89.9206 48.2241 89.5645 48.0472 89.3633 47.9648C89.8118 48.288 90.4829 48.7902 90.8156 49.0459C95.8301 52.7613 98.6395 56.817 101.42 62.2804C100.421 58.636 99.0838 55.78 97.0713 53.4325C98.3267 54.8346 99.462 56.2807 100.436 57.7162Z" fill="#297AC8"/>
<path d="M102.56 63.6143C102.673 65.8758 102.62 68.0584 102.437 70.2113C102.419 69.2403 102.353 68.2744 102.23 67.3297C102.166 66.9113 102.083 66.3431 102.016 66.0192C101.982 67.2608 101.979 68.5073 101.812 69.7411C101.642 71.0586 101.444 72.4088 101.192 73.7577C101.418 72.1816 101.5 70.5856 101.418 69.0038C101.382 68.5776 101.291 67.9277 101.212 67.645C101.227 68.6529 101.122 69.5124 100.966 70.4549C100.624 72.3385 100.216 74.1036 99.7075 75.7841C99.8539 74.9907 99.9506 74.1874 99.9833 73.3791C98.7101 77.8772 96.6059 82.0977 93.5477 85.4587C93.1567 85.8997 92.6193 86.4303 92.2617 86.7762C92.5681 86.5915 92.866 86.3927 93.156 86.1831C94.4249 85.3124 95.5289 84.2533 96.4623 83.0643C95.7351 84.2327 94.9083 85.3749 93.9565 86.5028C96.3514 84.5921 98.3838 82.1531 99.6883 79.3738C99.0115 81.2183 98.1428 82.9699 96.9692 84.5169C98.9198 82.8058 100.276 80.6437 101.156 78.2757C101.099 78.5016 101.042 78.7253 101.012 78.8751C101.114 78.6656 101.213 78.454 101.31 78.2409C103.413 73.7172 103.989 68.42 102.56 63.6143Z" fill="#297AC8"/>
<path d="M65.4028 103.293C64.5092 102.791 63.6235 102.271 62.7761 101.692C59.6006 99.439 56.0789 96.4829 53.0207 93.1844C46.433 85.7855 42.9141 75.5086 43.7807 65.1769C44.6693 56.9776 49.6028 47.4223 56.1471 40.9922C48.3417 46.798 42.7442 55.9853 41.9758 65.753C41.3417 75.1875 44.2854 84.8465 50.0542 92.3384C48.7661 90.8419 47.6465 89.285 46.5098 87.434C42.7222 81.1943 40.6585 74.5227 41.2272 67.1643C41.9011 60.0623 44.6224 52.2322 49.1294 45.93C43.561 51.8153 39.9604 59.6908 39.4237 67.7922C38.8536 77.8794 43.3371 87.8666 50.2035 95.1149C51.9956 96.9581 53.9377 98.6542 55.9773 100.218C56.5296 100.569 56.986 101.175 57.6258 101.335C58.0559 101.424 58.4561 101.112 58.5812 100.716C60.5311 102.301 62.5756 103.765 64.7865 104.961C65.1696 105.139 65.5158 105.446 65.9359 105.515C66.3596 105.601 66.7862 105.293 66.9006 104.885C67.1395 103.936 66.0106 103.696 65.4028 103.293Z" fill="#1B2149"/>
<path d="M52.0292 97.1043C51.4128 96.5631 50.7993 96.0176 50.2114 95.4451C48.1144 93.3569 46.6585 91.7126 45.2225 89.569C41.2984 83.5346 38.9661 77.5328 38.8239 70.6872C38.8779 64.022 40.5279 57.1132 43.9237 50.5566C39.7828 56.3148 37.2841 63.3231 37.0645 70.4229C37.1398 78.7274 40.611 86.762 45.7464 93.1957C47.1312 94.8577 48.6219 96.4352 50.2449 97.8686C50.8754 98.4212 51.737 99.4645 52.4642 98.429C52.7614 97.9282 52.4647 97.3983 52.0292 97.1043Z" fill="#1B2149"/>
<path d="M44.4633 92.2342C43.9834 91.585 43.5064 90.9337 43.0508 90.2667C41.7101 88.3568 40.5734 86.3127 39.5696 84.2081C38.2836 81.3812 36.8718 78.4485 36.3884 74.8524C36.0579 72.6491 36.0109 67.1367 36.5142 64.6238C37.2315 60.9588 38.4464 57.5587 40.2542 54.3604C35.3072 60.6548 33.3914 69.0971 34.978 76.9264C35.4899 79.0359 36.232 81.085 37.1107 83.0781C33.2748 75.2984 33.2762 66.0656 36.6621 57.4195C31.0647 67.4173 31.376 78.0401 37.6175 87.633C38.0689 88.0336 38.8587 87.7545 38.9981 87.1763C39.0173 87.1103 39.0243 87.0464 39.0258 86.9831C39.4324 87.7438 39.8469 88.4982 40.2734 89.2411C41.2103 90.7405 42.2361 92.1809 43.2974 93.5936C43.6536 94.2521 44.7277 94.1192 44.9047 93.3841C45.0405 92.9203 44.727 92.5751 44.4633 92.2342Z" fill="#1B2149"/>
<path d="M34.1924 80.9508C32.8417 76.9882 31.9801 73.5149 32.0156 69.6063C32.1166 66.528 32.7557 63.5797 33.8284 60.4814C32.1848 63.6528 31.0204 67.1445 30.8 70.725C30.7666 71.6973 30.7979 72.6711 30.8704 73.6435C30.6785 72.7414 30.5498 71.8799 30.5349 71.1774C30.4531 68.2781 30.7652 65.6885 31.801 62.9511C30.1133 65.8603 29.2937 69.325 29.4046 72.6832C29.438 73.0156 29.4757 73.3516 29.5183 73.6875C29.2389 72.5234 29.1472 71.8067 29.1131 70.3024C29.1494 68.5253 29.266 66.9641 30.0223 65.3191C27.7312 68.7234 27.916 73.1413 28.9304 76.9583C29.1401 77.8121 29.3769 78.6594 29.6434 79.4968C29.7195 79.7753 29.974 80.0175 30.2683 80.0345C30.5839 80.0977 30.891 79.8989 31.0318 79.6183C31.2514 80.1205 31.4889 80.6127 31.7668 81.08C31.9566 81.2477 32.2062 81.2853 32.44 81.2349C32.7379 82.1156 33.0621 82.9857 33.4282 83.8345C33.822 84.4162 34.8009 84.2102 34.9665 83.5354C35.0276 82.6597 34.3928 81.8052 34.1924 80.9508Z" fill="#1B2149"/>
<path d="M28.5443 76.6267C27.5853 73.5072 27.4104 70.4808 28.481 67.2803C26.8659 70.0134 26.4948 73.4007 27.2711 76.4598C27.4609 76.9812 27.441 78.0182 28.1121 78.1176C28.4035 78.1766 28.6978 77.9635 28.7767 77.6843C28.8564 77.3207 28.6111 76.9783 28.5443 76.6267Z" fill="#1B2149"/>
<path d="M91.5299 34.4781C92.4242 34.9796 93.31 35.5002 94.1566 36.0784C97.3321 38.332 100.855 41.2882 103.912 44.586C110.5 51.9856 114.019 62.2618 113.152 72.5941C112.263 80.7928 107.331 90.3488 100.786 96.7782C108.592 90.9731 114.189 81.7851 114.957 72.0181C115.592 62.5829 112.647 52.9246 106.879 45.4319C108.167 46.9285 109.287 48.4861 110.424 50.3364C114.211 56.5768 116.274 63.2484 115.706 70.6061C115.032 77.7081 112.311 85.5388 107.803 91.8404C113.372 85.9558 116.972 78.0796 117.51 69.9789C118.08 59.8916 113.596 49.9038 106.729 42.6555C104.938 40.8123 102.995 39.1169 100.955 37.5529C100.403 37.202 99.9467 36.5954 99.307 36.4356C98.8776 36.3475 98.4774 36.6594 98.3523 37.0543C96.4023 35.4696 94.3571 34.0065 92.1463 32.809C91.7631 32.6314 91.4169 32.3246 90.9975 32.2557C90.5738 32.1697 90.1473 32.478 90.0328 32.885C89.7933 33.8339 90.9229 34.0754 91.5299 34.4781Z" fill="#1B2149"/>
<path d="M104.905 40.6651C105.52 41.207 106.134 41.7518 106.722 42.3243C108.819 44.4132 110.275 46.0575 111.711 48.2011C115.635 54.2349 117.968 60.2374 118.109 67.0823C118.056 73.7474 116.406 80.657 113.01 87.2135C117.151 81.4553 119.649 74.4463 119.869 67.3472C119.794 59.042 116.322 51.0081 111.187 44.5744C109.802 42.9117 108.311 41.3342 106.689 39.9009C106.058 39.3483 105.197 38.3049 104.47 39.3412C104.172 39.8412 104.469 40.3711 104.905 40.6651Z" fill="#1B2149"/>
<path d="M112.47 45.5365C112.95 46.1857 113.427 46.8377 113.882 47.5047C115.223 49.4146 116.36 51.4587 117.363 53.5633C118.649 56.3901 120.061 59.3229 120.545 62.9183C120.876 65.1215 120.923 70.6347 120.419 73.1469C119.702 76.8126 118.487 80.2127 116.679 83.411C121.626 77.1159 123.542 68.6736 121.956 60.8443C121.443 58.7348 120.701 56.6863 119.823 54.6933C123.658 62.4729 123.657 71.7057 120.271 80.3519C125.869 70.3534 125.557 59.7313 119.315 50.1383C118.865 49.7377 118.075 50.0162 117.935 50.5943C117.916 50.6611 117.909 50.725 117.907 50.7875C117.501 50.0275 117.086 49.2732 116.66 48.5296C115.723 47.0309 114.697 45.5898 113.635 44.177C113.279 43.5193 112.205 43.6521 112.029 44.3873C111.893 44.8511 112.207 45.1956 112.47 45.5365Z" fill="#1B2149"/>
<path d="M122.741 56.82C124.092 60.7826 124.953 64.2558 124.918 68.1645C124.817 71.2428 124.178 74.1911 123.105 77.2886C124.748 74.118 125.913 70.6255 126.133 67.0458C126.167 66.0734 126.135 65.0989 126.062 64.1273C126.255 65.0286 126.384 65.8902 126.399 66.5933C126.48 69.492 126.168 72.0823 125.133 74.8197C126.82 71.9104 127.64 68.445 127.528 65.0876C127.496 64.7544 127.457 64.4192 127.415 64.0825C127.695 65.2474 127.786 65.9633 127.82 67.4684C127.784 69.2455 127.668 70.806 126.911 72.4509C129.202 69.0466 129.018 64.6294 128.003 60.8124C127.793 59.9587 127.556 59.1113 127.289 58.2739C127.213 57.9955 126.96 57.7533 126.665 57.7362C126.35 57.6723 126.043 57.8712 125.902 58.1517C125.682 57.6496 125.444 57.1581 125.166 56.6907C124.977 56.5224 124.727 56.4847 124.493 56.5359C124.196 55.6544 123.871 54.7844 123.505 53.9363C123.112 53.3546 122.132 53.5598 121.967 54.2353C121.905 55.1104 122.54 55.9648 122.741 56.82Z" fill="#1B2149"/>
<path d="M128.391 61.1436C129.349 64.2631 129.524 67.2895 128.454 70.49C130.069 67.7576 130.44 64.3703 129.663 61.3112C129.474 60.7898 129.494 59.7529 128.823 59.6534C128.531 59.5945 128.237 59.8075 128.159 60.0867C128.078 60.4503 128.324 60.7927 128.391 61.1436Z" fill="#1B2149"/>
<path d="M78.4693 36.9858C60.8651 36.9858 46.543 51.2957 46.543 68.8848C46.543 86.474 60.8651 100.784 78.4693 100.784C96.0735 100.784 110.396 86.474 110.396 68.8848C110.396 51.2957 96.0735 36.9858 78.4693 36.9858ZM78.4693 102.553C59.8883 102.553 44.7715 87.4499 44.7715 68.8848C44.7715 50.3198 59.8883 35.2158 78.4693 35.2158C97.0502 35.2158 112.166 50.3198 112.166 68.8848C112.166 87.4499 97.0502 102.553 78.4693 102.553Z" fill="#293885"/>
<path d="M78.4687 43.4905C64.4545 43.4905 53.0534 54.8819 53.0534 68.8842C53.0534 82.8865 64.4545 94.2785 78.4687 94.2785C92.483 94.2785 103.884 82.8865 103.884 68.8842C103.884 54.8819 92.483 43.4905 78.4687 43.4905ZM78.4687 96.1721C63.4095 96.1721 51.1582 83.9306 51.1582 68.8842C51.1582 53.8385 63.4095 41.5977 78.4687 41.5977C93.5273 41.5977 105.779 53.8385 105.779 68.8842C105.779 83.9306 93.5273 96.1721 78.4687 96.1721Z" fill="#364FA9"/>
<path d="M78.4701 54.4065C70.4791 54.4065 63.9781 60.902 63.9781 68.8854C63.9781 76.8696 70.4791 83.365 78.4701 83.365C86.4603 83.365 92.9613 76.8696 92.9613 68.8854C92.9613 60.902 86.4603 54.4065 78.4701 54.4065ZM78.4701 84.8282C69.6715 84.8282 62.5137 77.6765 62.5137 68.8854C62.5137 60.0951 69.6715 52.9434 78.4701 52.9434C87.2679 52.9434 94.4257 60.0951 94.4257 68.8854C94.4257 77.6765 87.2679 84.8282 78.4701 84.8282Z" fill="#297AC8"/>
<path d="M72.0293 68.8856C72.0293 65.3335 74.9112 62.4541 78.4663 62.4541C82.0207 62.4541 84.9026 65.3335 84.9026 68.8856C84.9026 72.437 82.0207 75.3164 78.4663 75.3164C74.9112 75.3164 72.0293 72.437 72.0293 68.8856Z" fill="#1B2149"/>
<path d="M80.61 28.5219C79.8146 27.9359 78.8563 28.2037 77.9748 28.171C75.9566 28.2285 73.9384 28.3386 71.9259 28.5254C63.0734 29.4687 54.4291 32.9618 46.7182 38.3044C40.7916 42.5852 35.3868 47.9286 30.7092 54.0881C28.5296 56.9469 26.5228 59.9954 24.6383 63.1483C24.0163 64.2102 23.3928 65.2706 22.8163 66.3694C22.5035 67.0264 22.0635 67.6699 22.0336 68.4526C21.6277 71.3697 25.0072 72.7824 26.2157 70.2113C34.4456 54.3154 47.1333 41.3764 62.1549 36.3491C67.5036 34.4896 70.1054 34.1053 75.1931 33.8056C76.2445 33.7452 77.2966 33.6997 78.3487 33.6799C79.2978 33.672 80.3662 33.7857 81.0693 32.8538C82.1107 31.6414 81.8633 29.3863 80.61 28.5219Z" fill="#1B2149"/>
<path d="M76.3207 28.5219C77.1162 27.9359 78.0751 28.2037 78.9566 28.171C80.9748 28.2285 82.9923 28.3386 85.0055 28.5254C93.8574 29.4687 102.502 32.9618 110.213 38.3044C116.139 42.5852 121.545 47.9286 126.222 54.0881C128.401 56.9469 130.408 59.9954 132.293 63.1483C132.914 64.2102 133.538 65.2706 134.115 66.3694C134.428 67.0264 134.867 67.6699 134.898 68.4526C135.303 71.3697 131.923 72.7824 130.716 70.2113C122.486 54.3154 109.798 41.3764 94.7758 36.3491C89.4272 34.4896 86.8253 34.1053 81.7376 33.8056C80.6862 33.7452 79.6348 33.6997 78.5827 33.6799C77.6337 33.672 76.5652 33.7857 75.8622 32.8538C74.8207 31.6414 75.0681 29.3863 76.3207 28.5219Z" fill="#1B2149"/>
<path d="M80.61 109.248C79.8146 109.834 78.8563 109.566 77.9748 109.599C75.9566 109.542 73.9384 109.432 71.9259 109.244C63.0734 108.302 54.4291 104.808 46.7182 99.4651C40.7916 95.1843 35.3868 89.8409 30.7092 83.6821C28.5296 80.8226 26.5228 77.7741 24.6383 74.6219C24.0163 73.56 23.3928 72.4989 22.8163 71.4008C22.5035 70.7431 22.0635 70.1003 22.0336 69.3176C21.6277 66.3998 25.0072 64.9878 26.2157 67.5583C34.4456 83.4541 47.1333 96.3932 62.1549 101.42C67.5036 103.281 70.1054 103.664 75.1931 103.965C76.2445 104.024 77.2966 104.07 78.3487 104.09C79.2978 104.098 80.3662 103.985 81.0693 104.916C82.1107 106.129 81.8633 108.384 80.61 109.248Z" fill="#1B2149"/>
<path d="M76.3207 109.248C77.1162 109.834 78.0751 109.566 78.9566 109.599C80.9748 109.542 82.9923 109.432 85.0055 109.244C93.8574 108.302 102.502 104.808 110.213 99.4651C116.139 95.1843 121.545 89.8409 126.222 83.6821C128.401 80.8226 130.408 77.7741 132.293 74.6219C132.914 73.56 133.538 72.4989 134.115 71.4008C134.428 70.7431 134.867 70.1003 134.898 69.3176C135.303 66.3998 131.923 64.9878 130.716 67.5583C122.486 83.4541 109.798 96.3932 94.7758 101.42C89.4272 103.281 86.8253 103.664 81.7376 103.965C80.6862 104.024 79.6348 104.07 78.5827 104.09C77.6337 104.098 76.5652 103.985 75.8622 104.916C74.8207 106.129 75.0681 108.384 76.3207 109.248Z" fill="#1B2149"/>
</g>
</g>
<path d="M31.8807 84.5455H36.0909V95.804C36.0909 97.1051 35.7813 98.2386 35.1619 99.2045C34.5426 100.165 33.679 100.909 32.571 101.438C31.4631 101.96 30.1761 102.222 28.7102 102.222C27.2273 102.222 25.9318 101.96 24.8239 101.438C23.7159 100.909 22.8551 100.165 22.2415 99.2045C21.6278 98.2386 21.321 97.1051 21.321 95.804V84.5455H25.5398V95.4375C25.5398 96.0398 25.6705 96.5767 25.9318 97.0483C26.1989 97.5199 26.571 97.8892 27.0483 98.1562C27.5256 98.4233 28.0795 98.5568 28.7102 98.5568C29.3409 98.5568 29.892 98.4233 30.3636 98.1562C30.8409 97.8892 31.2131 97.5199 31.4801 97.0483C31.7472 96.5767 31.8807 96.0398 31.8807 95.4375V84.5455ZM55.2702 84.5455V102H51.6907L44.7446 91.9261H44.6338V102H40.4151V84.5455H44.0458L50.9151 94.6023H51.06V84.5455H55.2702ZM59.6029 102V84.5455H66.8813C68.1881 84.5455 69.2819 84.7301 70.1626 85.0994C71.0489 85.4687 71.7137 85.9858 72.1569 86.6506C72.6057 87.3153 72.8302 88.0852 72.8302 88.9602C72.8302 89.625 72.691 90.2188 72.4126 90.7415C72.1341 91.2585 71.7506 91.6875 71.262 92.0284C70.7734 92.3693 70.208 92.608 69.566 92.7443V92.9148C70.2705 92.9489 70.9211 93.1392 71.5177 93.4858C72.1199 93.8324 72.6029 94.3153 72.9665 94.9347C73.3302 95.5483 73.512 96.2756 73.512 97.1165C73.512 98.054 73.2734 98.892 72.7961 99.6307C72.3188 100.364 71.6285 100.943 70.7251 101.369C69.8216 101.79 68.7251 102 67.4353 102H59.6029ZM63.8216 98.5994H66.4296C67.3444 98.5994 68.0177 98.4261 68.4495 98.0795C68.887 97.733 69.1057 97.25 69.1057 96.6307C69.1057 96.1818 69.0006 95.7955 68.7904 95.4716C68.5802 95.142 68.2819 94.8892 67.8955 94.7131C67.5091 94.5312 67.0461 94.4403 66.5063 94.4403H63.8216V98.5994ZM63.8216 91.7216H66.1569C66.6171 91.7216 67.0262 91.6449 67.3841 91.4915C67.7421 91.3381 68.0205 91.1165 68.2194 90.8267C68.4239 90.5369 68.5262 90.1875 68.5262 89.7784C68.5262 89.1932 68.3188 88.733 67.904 88.3977C67.4893 88.0625 66.9296 87.8949 66.2251 87.8949H63.8216V91.7216ZM77.2204 102V84.5455H81.4391V98.5739H88.7005V102H77.2204ZM96.7832 84.5455V102H92.5645V84.5455H96.7832ZM115.967 84.5455V102H112.387L105.441 91.9261H105.33V102H101.112V84.5455H104.742L111.612 94.6023H111.757V84.5455H115.967ZM126.751 102H120.299V84.5455H126.743C128.521 84.5455 130.052 84.8949 131.336 85.5938C132.626 86.2869 133.62 87.2869 134.319 88.5938C135.018 89.8949 135.368 91.4517 135.368 93.2642C135.368 95.0824 135.018 96.6449 134.319 97.9517C133.626 99.2585 132.635 100.261 131.345 100.96C130.055 101.653 128.524 102 126.751 102ZM124.518 98.4034H126.589C127.567 98.4034 128.393 98.2386 129.069 97.9091C129.751 97.5739 130.265 97.0312 130.612 96.2812C130.964 95.5256 131.14 94.5199 131.14 93.2642C131.14 92.0085 130.964 91.0085 130.612 90.2642C130.26 89.5142 129.74 88.9744 129.052 88.6449C128.37 88.3097 127.53 88.142 126.53 88.142H124.518V98.4034Z" fill="#EF576E"/>
</svg>
